<mxfile host="app.diagrams.net" modified="2023-12-08T18:57:30.387Z" agent="Mozilla/5.0 (Windows NT 10.0; Win64; x64) AppleWebKit/537.36 (KHTML, like Gecko) Chrome/109.0.0.0 Safari/537.36" etag="Wfp70JYCiLmYxwUVHLTj" version="22.1.7" type="device">
  <diagram name="Page-1" id="OowXNSXQzoK-NPqFLHTf">
    <mxGraphModel dx="2109" dy="1779" grid="1" gridSize="10" guides="1" tooltips="1" connect="1" arrows="1" fold="1" page="1" pageScale="1" pageWidth="850" pageHeight="1100" math="0" shadow="0">
      <root>
        <mxCell id="0" />
        <mxCell id="1" parent="0" />
        <mxCell id="UIp_oxGLhuecJ5jzLFc2-1" value="start" style="rounded=1;whiteSpace=wrap;html=1;" parent="1" vertex="1">
          <mxGeometry x="-60" y="-80" width="120" height="30" as="geometry" />
        </mxCell>
        <mxCell id="UIp_oxGLhuecJ5jzLFc2-2" value="MAR := IP&lt;br&gt;Read Memory&lt;br&gt;IR := MDR" style="rounded=0;whiteSpace=wrap;html=1;fillColor=#33FFFF;" parent="1" vertex="1">
          <mxGeometry x="-60" y="40" width="120" height="60" as="geometry" />
        </mxCell>
        <mxCell id="UIp_oxGLhuecJ5jzLFc2-3" value="data transfer" style="rhombus;whiteSpace=wrap;html=1;fillColor=#33FF33;" parent="1" vertex="1">
          <mxGeometry x="-40" y="220" width="80" height="80" as="geometry" />
        </mxCell>
        <mxCell id="UIp_oxGLhuecJ5jzLFc2-4" value="MAR := address&lt;br&gt;Read/Write Memory" style="rounded=0;whiteSpace=wrap;html=1;fillColor=#FF3333;" parent="1" vertex="1">
          <mxGeometry x="-60" y="330" width="120" height="60" as="geometry" />
        </mxCell>
        <mxCell id="UIp_oxGLhuecJ5jzLFc2-5" value="pending interrupt" style="rhombus;whiteSpace=wrap;html=1;" parent="1" vertex="1">
          <mxGeometry x="-42.5" y="560" width="85" height="80" as="geometry" />
        </mxCell>
        <mxCell id="UIp_oxGLhuecJ5jzLFc2-6" value="" style="endArrow=classic;html=1;rounded=0;exitX=0.5;exitY=1;exitDx=0;exitDy=0;" parent="1" source="UIp_oxGLhuecJ5jzLFc2-1" target="UIp_oxGLhuecJ5jzLFc2-2" edge="1">
          <mxGeometry width="50" height="50" relative="1" as="geometry">
            <mxPoint x="60" y="-40" as="sourcePoint" />
            <mxPoint x="450" y="300" as="targetPoint" />
            <Array as="points">
              <mxPoint y="-20" />
              <mxPoint />
            </Array>
          </mxGeometry>
        </mxCell>
        <mxCell id="UIp_oxGLhuecJ5jzLFc2-7" value="" style="endArrow=classic;html=1;rounded=0;exitX=0.5;exitY=1;exitDx=0;exitDy=0;" parent="1" source="UIp_oxGLhuecJ5jzLFc2-2" target="UIp_oxGLhuecJ5jzLFc2-3" edge="1">
          <mxGeometry width="50" height="50" relative="1" as="geometry">
            <mxPoint x="400" y="350" as="sourcePoint" />
            <mxPoint x="450" y="300" as="targetPoint" />
          </mxGeometry>
        </mxCell>
        <mxCell id="UIp_oxGLhuecJ5jzLFc2-8" value="" style="endArrow=classic;html=1;rounded=0;exitX=0.5;exitY=1;exitDx=0;exitDy=0;entryX=0.5;entryY=0;entryDx=0;entryDy=0;" parent="1" source="UIp_oxGLhuecJ5jzLFc2-3" target="UIp_oxGLhuecJ5jzLFc2-4" edge="1">
          <mxGeometry width="50" height="50" relative="1" as="geometry">
            <mxPoint x="400" y="350" as="sourcePoint" />
            <mxPoint x="450" y="300" as="targetPoint" />
          </mxGeometry>
        </mxCell>
        <mxCell id="UIp_oxGLhuecJ5jzLFc2-9" value="" style="endArrow=classic;html=1;rounded=0;exitX=0.5;exitY=1;exitDx=0;exitDy=0;entryX=0.451;entryY=0.264;entryDx=0;entryDy=0;entryPerimeter=0;" parent="1" source="UIp_oxGLhuecJ5jzLFc2-4" target="UIp_oxGLhuecJ5jzLFc2-58" edge="1">
          <mxGeometry width="50" height="50" relative="1" as="geometry">
            <mxPoint x="400" y="350" as="sourcePoint" />
            <mxPoint x="450" y="300" as="targetPoint" />
          </mxGeometry>
        </mxCell>
        <mxCell id="UIp_oxGLhuecJ5jzLFc2-12" value="" style="endArrow=classic;html=1;rounded=0;exitX=0;exitY=0.5;exitDx=0;exitDy=0;" parent="1" source="x0BQICnStO803g0cChY8-25" edge="1">
          <mxGeometry width="50" height="50" relative="1" as="geometry">
            <mxPoint x="-60" y="780" as="sourcePoint" />
            <mxPoint as="targetPoint" />
            <Array as="points">
              <mxPoint x="-110" y="810" />
              <mxPoint x="-270" y="810" />
              <mxPoint x="-270" />
            </Array>
          </mxGeometry>
        </mxCell>
        <mxCell id="UIp_oxGLhuecJ5jzLFc2-13" value="arithmetic operation" style="rhombus;whiteSpace=wrap;html=1;fillColor=#33FF33;" parent="1" vertex="1">
          <mxGeometry x="140" y="290" width="80" height="80" as="geometry" />
        </mxCell>
        <mxCell id="UIp_oxGLhuecJ5jzLFc2-14" value="" style="endArrow=classic;html=1;rounded=0;exitX=1;exitY=0.5;exitDx=0;exitDy=0;entryX=0.5;entryY=0;entryDx=0;entryDy=0;" parent="1" source="UIp_oxGLhuecJ5jzLFc2-3" target="UIp_oxGLhuecJ5jzLFc2-13" edge="1">
          <mxGeometry width="50" height="50" relative="1" as="geometry">
            <mxPoint x="270" y="350" as="sourcePoint" />
            <mxPoint x="180" y="280" as="targetPoint" />
            <Array as="points">
              <mxPoint x="180" y="260" />
            </Array>
          </mxGeometry>
        </mxCell>
        <mxCell id="UIp_oxGLhuecJ5jzLFc2-16" value="MAR := address&lt;br&gt;Read Memory&lt;br&gt;Operand Register := MDR&lt;br&gt;Operation Code -&amp;gt; ALU" style="rounded=0;whiteSpace=wrap;html=1;fillColor=#FF3333;" parent="1" vertex="1">
          <mxGeometry x="105" y="390" width="150" height="80" as="geometry" />
        </mxCell>
        <mxCell id="UIp_oxGLhuecJ5jzLFc2-17" value="" style="endArrow=classic;html=1;rounded=0;exitX=0.5;exitY=1;exitDx=0;exitDy=0;" parent="1" source="UIp_oxGLhuecJ5jzLFc2-13" target="UIp_oxGLhuecJ5jzLFc2-16" edge="1">
          <mxGeometry width="50" height="50" relative="1" as="geometry">
            <mxPoint x="270" y="710" as="sourcePoint" />
            <mxPoint x="320" y="660" as="targetPoint" />
          </mxGeometry>
        </mxCell>
        <mxCell id="UIp_oxGLhuecJ5jzLFc2-19" value="unconditional jump" style="rhombus;whiteSpace=wrap;html=1;fillColor=#33FF33;" parent="1" vertex="1">
          <mxGeometry x="310" y="370" width="100" height="100" as="geometry" />
        </mxCell>
        <mxCell id="UIp_oxGLhuecJ5jzLFc2-20" value="" style="endArrow=classic;html=1;rounded=0;exitX=1;exitY=0.5;exitDx=0;exitDy=0;entryX=0.5;entryY=0;entryDx=0;entryDy=0;" parent="1" source="UIp_oxGLhuecJ5jzLFc2-13" target="UIp_oxGLhuecJ5jzLFc2-19" edge="1">
          <mxGeometry width="50" height="50" relative="1" as="geometry">
            <mxPoint x="270" y="440" as="sourcePoint" />
            <mxPoint x="320" y="390" as="targetPoint" />
            <Array as="points">
              <mxPoint x="360" y="330" />
            </Array>
          </mxGeometry>
        </mxCell>
        <mxCell id="UIp_oxGLhuecJ5jzLFc2-23" value="IP := address" style="rounded=0;whiteSpace=wrap;html=1;fillColor=#FF3333;" parent="1" vertex="1">
          <mxGeometry x="300" y="510" width="120" height="35" as="geometry" />
        </mxCell>
        <mxCell id="UIp_oxGLhuecJ5jzLFc2-25" value="" style="endArrow=classic;html=1;rounded=0;entryX=0.5;entryY=0;entryDx=0;entryDy=0;exitX=0.5;exitY=1;exitDx=0;exitDy=0;" parent="1" source="UIp_oxGLhuecJ5jzLFc2-19" target="UIp_oxGLhuecJ5jzLFc2-23" edge="1">
          <mxGeometry width="50" height="50" relative="1" as="geometry">
            <mxPoint x="270" y="430" as="sourcePoint" />
            <mxPoint x="320" y="380" as="targetPoint" />
          </mxGeometry>
        </mxCell>
        <mxCell id="UIp_oxGLhuecJ5jzLFc2-26" value="conditional jump" style="rhombus;whiteSpace=wrap;html=1;fillColor=#33FF33;" parent="1" vertex="1">
          <mxGeometry x="460" y="450" width="80" height="80" as="geometry" />
        </mxCell>
        <mxCell id="UIp_oxGLhuecJ5jzLFc2-27" value="" style="endArrow=classic;html=1;rounded=0;exitX=1;exitY=0.5;exitDx=0;exitDy=0;entryX=0.5;entryY=0;entryDx=0;entryDy=0;" parent="1" source="UIp_oxGLhuecJ5jzLFc2-19" target="UIp_oxGLhuecJ5jzLFc2-26" edge="1">
          <mxGeometry width="50" height="50" relative="1" as="geometry">
            <mxPoint x="470" y="520" as="sourcePoint" />
            <mxPoint x="520" y="470" as="targetPoint" />
            <Array as="points">
              <mxPoint x="500" y="420" />
            </Array>
          </mxGeometry>
        </mxCell>
        <mxCell id="UIp_oxGLhuecJ5jzLFc2-28" value="Test bit in flags register" style="rounded=0;whiteSpace=wrap;html=1;fillColor=#FF3333;" parent="1" vertex="1">
          <mxGeometry x="440" y="550" width="120" height="40" as="geometry" />
        </mxCell>
        <mxCell id="UIp_oxGLhuecJ5jzLFc2-29" value="" style="endArrow=classic;html=1;rounded=0;exitX=0.5;exitY=1;exitDx=0;exitDy=0;entryX=0.5;entryY=0;entryDx=0;entryDy=0;" parent="1" source="UIp_oxGLhuecJ5jzLFc2-26" target="UIp_oxGLhuecJ5jzLFc2-28" edge="1">
          <mxGeometry width="50" height="50" relative="1" as="geometry">
            <mxPoint x="470" y="520" as="sourcePoint" />
            <mxPoint x="520" y="470" as="targetPoint" />
          </mxGeometry>
        </mxCell>
        <mxCell id="UIp_oxGLhuecJ5jzLFc2-31" value="bit set" style="rhombus;whiteSpace=wrap;html=1;fillColor=#FF3333;" parent="1" vertex="1">
          <mxGeometry x="460" y="630" width="80" height="80" as="geometry" />
        </mxCell>
        <mxCell id="UIp_oxGLhuecJ5jzLFc2-33" value="IP := address" style="rounded=0;whiteSpace=wrap;html=1;fillColor=#FF3333;" parent="1" vertex="1">
          <mxGeometry x="440" y="735" width="120" height="35" as="geometry" />
        </mxCell>
        <mxCell id="UIp_oxGLhuecJ5jzLFc2-34" value="" style="endArrow=classic;html=1;rounded=0;entryX=0.5;entryY=0;entryDx=0;entryDy=0;" parent="1" target="UIp_oxGLhuecJ5jzLFc2-33" edge="1">
          <mxGeometry width="50" height="50" relative="1" as="geometry">
            <mxPoint x="500" y="710" as="sourcePoint" />
            <mxPoint x="460" y="610" as="targetPoint" />
          </mxGeometry>
        </mxCell>
        <mxCell id="UIp_oxGLhuecJ5jzLFc2-35" value="" style="endArrow=classic;html=1;rounded=0;exitX=0.5;exitY=1;exitDx=0;exitDy=0;entryX=0.5;entryY=0;entryDx=0;entryDy=0;" parent="1" source="UIp_oxGLhuecJ5jzLFc2-28" target="UIp_oxGLhuecJ5jzLFc2-31" edge="1">
          <mxGeometry width="50" height="50" relative="1" as="geometry">
            <mxPoint x="70" y="610" as="sourcePoint" />
            <mxPoint x="120" y="560" as="targetPoint" />
          </mxGeometry>
        </mxCell>
        <mxCell id="UIp_oxGLhuecJ5jzLFc2-38" value="subprogram" style="rhombus;whiteSpace=wrap;html=1;fillColor=#33FF33;" parent="1" vertex="1">
          <mxGeometry x="610" y="530" width="80" height="80" as="geometry" />
        </mxCell>
        <mxCell id="UIp_oxGLhuecJ5jzLFc2-39" value="" style="endArrow=classic;html=1;rounded=0;exitX=1;exitY=0.5;exitDx=0;exitDy=0;entryX=0.5;entryY=0;entryDx=0;entryDy=0;" parent="1" source="UIp_oxGLhuecJ5jzLFc2-26" target="UIp_oxGLhuecJ5jzLFc2-38" edge="1">
          <mxGeometry width="50" height="50" relative="1" as="geometry">
            <mxPoint x="510" y="610" as="sourcePoint" />
            <mxPoint x="560" y="560" as="targetPoint" />
            <Array as="points">
              <mxPoint x="650" y="490" />
            </Array>
          </mxGeometry>
        </mxCell>
        <mxCell id="UIp_oxGLhuecJ5jzLFc2-40" value="save address of the next command on the stack&lt;br&gt;IP := address" style="rounded=0;whiteSpace=wrap;html=1;fillColor=#FF3333;" parent="1" vertex="1">
          <mxGeometry x="570" y="640" width="160" height="60" as="geometry" />
        </mxCell>
        <mxCell id="UIp_oxGLhuecJ5jzLFc2-41" value="" style="endArrow=classic;html=1;rounded=0;exitX=0.5;exitY=1;exitDx=0;exitDy=0;entryX=0.5;entryY=0;entryDx=0;entryDy=0;" parent="1" source="UIp_oxGLhuecJ5jzLFc2-38" target="UIp_oxGLhuecJ5jzLFc2-40" edge="1">
          <mxGeometry width="50" height="50" relative="1" as="geometry">
            <mxPoint x="510" y="610" as="sourcePoint" />
            <mxPoint x="560" y="560" as="targetPoint" />
          </mxGeometry>
        </mxCell>
        <mxCell id="UIp_oxGLhuecJ5jzLFc2-43" value="" style="endArrow=classic;html=1;rounded=0;exitDx=0;exitDy=0;" parent="1" source="UIp_oxGLhuecJ5jzLFc2-54" edge="1">
          <mxGeometry width="50" height="50" relative="1" as="geometry">
            <mxPoint x="510" y="610" as="sourcePoint" />
            <mxPoint x="500" y="820" as="targetPoint" />
            <Array as="points" />
          </mxGeometry>
        </mxCell>
        <mxCell id="UIp_oxGLhuecJ5jzLFc2-44" value="return" style="rhombus;whiteSpace=wrap;html=1;fillColor=#33FF33;" parent="1" vertex="1">
          <mxGeometry x="760" y="610" width="80" height="80" as="geometry" />
        </mxCell>
        <mxCell id="UIp_oxGLhuecJ5jzLFc2-45" value="" style="endArrow=classic;html=1;rounded=0;entryX=0.5;entryY=0;entryDx=0;entryDy=0;exitX=1;exitY=0.5;exitDx=0;exitDy=0;" parent="1" source="UIp_oxGLhuecJ5jzLFc2-38" target="UIp_oxGLhuecJ5jzLFc2-44" edge="1">
          <mxGeometry width="50" height="50" relative="1" as="geometry">
            <mxPoint x="580" y="610" as="sourcePoint" />
            <mxPoint x="630" y="560" as="targetPoint" />
            <Array as="points">
              <mxPoint x="800" y="570" />
            </Array>
          </mxGeometry>
        </mxCell>
        <mxCell id="UIp_oxGLhuecJ5jzLFc2-46" value="load IP from stack" style="rounded=0;whiteSpace=wrap;html=1;fillColor=#FF3333;" parent="1" vertex="1">
          <mxGeometry x="740" y="735" width="120" height="35" as="geometry" />
        </mxCell>
        <mxCell id="UIp_oxGLhuecJ5jzLFc2-47" value="" style="endArrow=classic;html=1;rounded=0;exitX=0.5;exitY=1;exitDx=0;exitDy=0;entryX=0.5;entryY=0;entryDx=0;entryDy=0;" parent="1" source="UIp_oxGLhuecJ5jzLFc2-44" target="UIp_oxGLhuecJ5jzLFc2-46" edge="1">
          <mxGeometry width="50" height="50" relative="1" as="geometry">
            <mxPoint x="580" y="610" as="sourcePoint" />
            <mxPoint x="630" y="560" as="targetPoint" />
          </mxGeometry>
        </mxCell>
        <mxCell id="UIp_oxGLhuecJ5jzLFc2-48" value="" style="endArrow=classic;html=1;rounded=0;exitDx=0;exitDy=0;" parent="1" source="UIp_oxGLhuecJ5jzLFc2-51" edge="1">
          <mxGeometry width="50" height="50" relative="1" as="geometry">
            <mxPoint x="800" y="770" as="sourcePoint" />
            <mxPoint x="650" y="820" as="targetPoint" />
            <Array as="points" />
          </mxGeometry>
        </mxCell>
        <mxCell id="UIp_oxGLhuecJ5jzLFc2-49" value="finish" style="rounded=1;whiteSpace=wrap;html=1;" parent="1" vertex="1">
          <mxGeometry x="-50" y="910" width="100" height="30" as="geometry" />
        </mxCell>
        <mxCell id="UIp_oxGLhuecJ5jzLFc2-52" value="" style="endArrow=classic;html=1;rounded=0;exitX=0.5;exitY=1;exitDx=0;exitDy=0;" parent="1" source="UIp_oxGLhuecJ5jzLFc2-46" target="UIp_oxGLhuecJ5jzLFc2-51" edge="1">
          <mxGeometry width="50" height="50" relative="1" as="geometry">
            <mxPoint x="800" y="760" as="sourcePoint" />
            <mxPoint x="650" y="820" as="targetPoint" />
            <Array as="points">
              <mxPoint x="800" y="820" />
            </Array>
          </mxGeometry>
        </mxCell>
        <mxCell id="UIp_oxGLhuecJ5jzLFc2-51" value="" style="shape=waypoint;sketch=0;fillStyle=solid;size=6;pointerEvents=1;points=[];fillColor=none;resizable=0;rotatable=0;perimeter=centerPerimeter;snapToPoint=1;" parent="1" vertex="1">
          <mxGeometry x="640" y="810" width="20" height="20" as="geometry" />
        </mxCell>
        <mxCell id="UIp_oxGLhuecJ5jzLFc2-54" value="" style="shape=waypoint;sketch=0;fillStyle=solid;size=6;pointerEvents=1;points=[];fillColor=none;resizable=0;rotatable=0;perimeter=centerPerimeter;snapToPoint=1;" parent="1" vertex="1">
          <mxGeometry x="490" y="810" width="20" height="20" as="geometry" />
        </mxCell>
        <mxCell id="UIp_oxGLhuecJ5jzLFc2-58" value="" style="shape=waypoint;sketch=0;fillStyle=solid;size=6;pointerEvents=1;points=[];fillColor=none;resizable=0;rotatable=0;perimeter=centerPerimeter;snapToPoint=1;" parent="1" vertex="1">
          <mxGeometry x="-10" y="490" width="20" height="20" as="geometry" />
        </mxCell>
        <mxCell id="UIp_oxGLhuecJ5jzLFc2-59" value="" style="endArrow=classic;html=1;rounded=0;exitDx=0;exitDy=0;" parent="1" source="UIp_oxGLhuecJ5jzLFc2-63" target="UIp_oxGLhuecJ5jzLFc2-60" edge="1">
          <mxGeometry width="50" height="50" relative="1" as="geometry">
            <mxPoint x="460" y="660" as="sourcePoint" />
            <mxPoint y="660" as="targetPoint" />
            <Array as="points" />
          </mxGeometry>
        </mxCell>
        <mxCell id="UIp_oxGLhuecJ5jzLFc2-65" value="" style="endArrow=classic;html=1;rounded=0;exitDx=0;exitDy=0;" parent="1" source="UIp_oxGLhuecJ5jzLFc2-67" edge="1">
          <mxGeometry width="50" height="50" relative="1" as="geometry">
            <mxPoint x="130" y="610" as="sourcePoint" />
            <mxPoint x="360" y="820" as="targetPoint" />
          </mxGeometry>
        </mxCell>
        <mxCell id="UIp_oxGLhuecJ5jzLFc2-66" value="" style="endArrow=classic;html=1;rounded=0;exitX=0.5;exitY=1;exitDx=0;exitDy=0;" parent="1" source="UIp_oxGLhuecJ5jzLFc2-23" target="UIp_oxGLhuecJ5jzLFc2-67" edge="1">
          <mxGeometry width="50" height="50" relative="1" as="geometry">
            <mxPoint x="360" y="545" as="sourcePoint" />
            <mxPoint x="360" y="820" as="targetPoint" />
          </mxGeometry>
        </mxCell>
        <mxCell id="UIp_oxGLhuecJ5jzLFc2-67" value="" style="shape=waypoint;sketch=0;fillStyle=solid;size=6;pointerEvents=1;points=[];fillColor=none;resizable=0;rotatable=0;perimeter=centerPerimeter;snapToPoint=1;" parent="1" vertex="1">
          <mxGeometry x="350" y="810" width="20" height="20" as="geometry" />
        </mxCell>
        <mxCell id="UIp_oxGLhuecJ5jzLFc2-68" value="unknown command !" style="rounded=1;whiteSpace=wrap;html=1;" parent="1" vertex="1">
          <mxGeometry x="900" y="735" width="120" height="35" as="geometry" />
        </mxCell>
        <mxCell id="UIp_oxGLhuecJ5jzLFc2-69" value="" style="endArrow=classic;html=1;rounded=0;exitX=1;exitY=0.5;exitDx=0;exitDy=0;entryX=0.5;entryY=0;entryDx=0;entryDy=0;" parent="1" source="UIp_oxGLhuecJ5jzLFc2-44" target="UIp_oxGLhuecJ5jzLFc2-68" edge="1">
          <mxGeometry width="50" height="50" relative="1" as="geometry">
            <mxPoint x="440" y="560" as="sourcePoint" />
            <mxPoint x="960" y="720" as="targetPoint" />
            <Array as="points">
              <mxPoint x="960" y="650" />
            </Array>
          </mxGeometry>
        </mxCell>
        <mxCell id="uXvzxXOO6gsM3kULxBe8-1" value="" style="rounded=0;whiteSpace=wrap;html=1;strokeColor=none;fillColor=#33FFFF;" parent="1" vertex="1">
          <mxGeometry x="210" y="60" width="30" height="30" as="geometry" />
        </mxCell>
        <mxCell id="uXvzxXOO6gsM3kULxBe8-2" value="Fetch" style="text;html=1;strokeColor=none;fillColor=none;align=center;verticalAlign=middle;whiteSpace=wrap;rounded=0;" parent="1" vertex="1">
          <mxGeometry x="240" y="60" width="60" height="30" as="geometry" />
        </mxCell>
        <mxCell id="uXvzxXOO6gsM3kULxBe8-3" value="" style="rounded=0;whiteSpace=wrap;html=1;strokeColor=none;fillColor=#33FF33;" parent="1" vertex="1">
          <mxGeometry x="210" y="110" width="30" height="30" as="geometry" />
        </mxCell>
        <mxCell id="uXvzxXOO6gsM3kULxBe8-4" value="Decode" style="text;html=1;strokeColor=none;fillColor=none;align=center;verticalAlign=middle;whiteSpace=wrap;rounded=0;" parent="1" vertex="1">
          <mxGeometry x="240" y="110" width="60" height="30" as="geometry" />
        </mxCell>
        <mxCell id="uXvzxXOO6gsM3kULxBe8-5" value="" style="rounded=0;whiteSpace=wrap;html=1;strokeColor=none;fillColor=#FF3333;" parent="1" vertex="1">
          <mxGeometry x="210" y="160" width="30" height="30" as="geometry" />
        </mxCell>
        <mxCell id="uXvzxXOO6gsM3kULxBe8-6" value="Execute" style="text;html=1;strokeColor=none;fillColor=none;align=center;verticalAlign=middle;whiteSpace=wrap;rounded=0;" parent="1" vertex="1">
          <mxGeometry x="240" y="160" width="60" height="30" as="geometry" />
        </mxCell>
        <mxCell id="UIp_oxGLhuecJ5jzLFc2-64" value="" style="shape=waypoint;sketch=0;fillStyle=solid;size=6;pointerEvents=1;points=[];fillColor=none;resizable=0;rotatable=0;perimeter=centerPerimeter;snapToPoint=1;" parent="1" vertex="1">
          <mxGeometry x="-10" y="-10" width="20" height="20" as="geometry" />
        </mxCell>
        <mxCell id="x0BQICnStO803g0cChY8-4" value="" style="edgeStyle=orthogonalEdgeStyle;rounded=0;orthogonalLoop=1;jettySize=auto;html=1;exitX=0.5;exitY=0;exitDx=0;exitDy=0;exitPerimeter=0;startArrow=classic;startFill=1;endArrow=none;endFill=0;" edge="1" parent="1" source="x0BQICnStO803g0cChY8-2" target="UIp_oxGLhuecJ5jzLFc2-2">
          <mxGeometry relative="1" as="geometry" />
        </mxCell>
        <mxCell id="x0BQICnStO803g0cChY8-2" value="IP := IP + command liength" style="rounded=0;whiteSpace=wrap;html=1;strokeColor=#000000;fillColor=#33FFFF;" vertex="1" parent="1">
          <mxGeometry x="-60" y="130" width="120" height="60" as="geometry" />
        </mxCell>
        <mxCell id="UIp_oxGLhuecJ5jzLFc2-60" value="" style="shape=waypoint;sketch=0;fillStyle=solid;size=6;pointerEvents=1;points=[];fillColor=none;resizable=0;rotatable=0;perimeter=centerPerimeter;snapToPoint=1;" parent="1" vertex="1">
          <mxGeometry x="170" y="490" width="20" height="20" as="geometry" />
        </mxCell>
        <mxCell id="x0BQICnStO803g0cChY8-6" value="" style="endArrow=classic;html=1;rounded=0;exitX=0;exitY=0.5;exitDx=0;exitDy=0;" edge="1" parent="1" source="UIp_oxGLhuecJ5jzLFc2-31" target="UIp_oxGLhuecJ5jzLFc2-63">
          <mxGeometry width="50" height="50" relative="1" as="geometry">
            <mxPoint x="460" y="670" as="sourcePoint" />
            <mxPoint x="180" y="500" as="targetPoint" />
            <Array as="points">
              <mxPoint x="180" y="670" />
            </Array>
          </mxGeometry>
        </mxCell>
        <mxCell id="UIp_oxGLhuecJ5jzLFc2-63" value="" style="shape=waypoint;sketch=0;fillStyle=solid;size=6;pointerEvents=1;points=[];fillColor=none;resizable=0;rotatable=0;perimeter=centerPerimeter;snapToPoint=1;" parent="1" vertex="1">
          <mxGeometry x="170" y="660" width="20" height="20" as="geometry" />
        </mxCell>
        <mxCell id="x0BQICnStO803g0cChY8-13" value="" style="endArrow=classic;html=1;rounded=0;exitX=0.5;exitY=1;exitDx=0;exitDy=0;" edge="1" parent="1" source="UIp_oxGLhuecJ5jzLFc2-16" target="UIp_oxGLhuecJ5jzLFc2-60">
          <mxGeometry width="50" height="50" relative="1" as="geometry">
            <mxPoint x="220" y="490" as="sourcePoint" />
            <mxPoint x="270" y="440" as="targetPoint" />
          </mxGeometry>
        </mxCell>
        <mxCell id="x0BQICnStO803g0cChY8-14" value="" style="endArrow=classic;html=1;rounded=0;exitX=0.5;exitY=1;exitDx=0;exitDy=0;entryX=0.451;entryY=0.082;entryDx=0;entryDy=0;entryPerimeter=0;" edge="1" parent="1" source="UIp_oxGLhuecJ5jzLFc2-33" target="UIp_oxGLhuecJ5jzLFc2-54">
          <mxGeometry width="50" height="50" relative="1" as="geometry">
            <mxPoint x="220" y="580" as="sourcePoint" />
            <mxPoint x="270" y="530" as="targetPoint" />
          </mxGeometry>
        </mxCell>
        <mxCell id="x0BQICnStO803g0cChY8-15" value="" style="endArrow=classic;html=1;rounded=0;exitX=0.5;exitY=1;exitDx=0;exitDy=0;entryX=0.496;entryY=0.173;entryDx=0;entryDy=0;entryPerimeter=0;" edge="1" parent="1" source="UIp_oxGLhuecJ5jzLFc2-40" target="UIp_oxGLhuecJ5jzLFc2-51">
          <mxGeometry width="50" height="50" relative="1" as="geometry">
            <mxPoint x="220" y="580" as="sourcePoint" />
            <mxPoint x="270" y="530" as="targetPoint" />
          </mxGeometry>
        </mxCell>
        <mxCell id="x0BQICnStO803g0cChY8-16" value="" style="endArrow=classic;html=1;rounded=0;exitX=0.132;exitY=0.537;exitDx=0;exitDy=0;exitPerimeter=0;entryX=0.905;entryY=0.446;entryDx=0;entryDy=0;entryPerimeter=0;" edge="1" parent="1" source="UIp_oxGLhuecJ5jzLFc2-51" target="UIp_oxGLhuecJ5jzLFc2-54">
          <mxGeometry width="50" height="50" relative="1" as="geometry">
            <mxPoint x="270" y="580" as="sourcePoint" />
            <mxPoint x="320" y="530" as="targetPoint" />
          </mxGeometry>
        </mxCell>
        <mxCell id="x0BQICnStO803g0cChY8-17" value="" style="endArrow=classic;html=1;rounded=0;exitX=0.36;exitY=0.764;exitDx=0;exitDy=0;exitPerimeter=0;entryX=0.905;entryY=0.446;entryDx=0;entryDy=0;entryPerimeter=0;" edge="1" parent="1" source="UIp_oxGLhuecJ5jzLFc2-54" target="UIp_oxGLhuecJ5jzLFc2-67">
          <mxGeometry width="50" height="50" relative="1" as="geometry">
            <mxPoint x="270" y="580" as="sourcePoint" />
            <mxPoint x="320" y="530" as="targetPoint" />
          </mxGeometry>
        </mxCell>
        <mxCell id="x0BQICnStO803g0cChY8-18" value="" style="endArrow=classic;html=1;rounded=0;exitX=0.132;exitY=0.673;exitDx=0;exitDy=0;exitPerimeter=0;entryX=0.451;entryY=0.809;entryDx=0;entryDy=0;entryPerimeter=0;" edge="1" parent="1" source="UIp_oxGLhuecJ5jzLFc2-67" target="UIp_oxGLhuecJ5jzLFc2-63">
          <mxGeometry width="50" height="50" relative="1" as="geometry">
            <mxPoint x="270" y="580" as="sourcePoint" />
            <mxPoint x="320" y="530" as="targetPoint" />
            <Array as="points">
              <mxPoint x="180" y="820" />
            </Array>
          </mxGeometry>
        </mxCell>
        <mxCell id="x0BQICnStO803g0cChY8-19" value="" style="endArrow=classic;html=1;rounded=0;exitX=0.314;exitY=0.809;exitDx=0;exitDy=0;exitPerimeter=0;entryX=0.5;entryY=0;entryDx=0;entryDy=0;" edge="1" parent="1" source="UIp_oxGLhuecJ5jzLFc2-58" target="UIp_oxGLhuecJ5jzLFc2-5">
          <mxGeometry width="50" height="50" relative="1" as="geometry">
            <mxPoint x="270" y="580" as="sourcePoint" />
            <mxPoint x="320" y="530" as="targetPoint" />
          </mxGeometry>
        </mxCell>
        <mxCell id="x0BQICnStO803g0cChY8-21" value="" style="endArrow=classic;html=1;rounded=0;entryX=0.678;entryY=0.355;entryDx=0;entryDy=0;entryPerimeter=0;" edge="1" parent="1" source="UIp_oxGLhuecJ5jzLFc2-60" target="UIp_oxGLhuecJ5jzLFc2-58">
          <mxGeometry width="50" height="50" relative="1" as="geometry">
            <mxPoint x="270" y="580" as="sourcePoint" />
            <mxPoint x="320" y="530" as="targetPoint" />
          </mxGeometry>
        </mxCell>
        <mxCell id="x0BQICnStO803g0cChY8-22" value="execution of the current command has finished" style="text;html=1;strokeColor=none;fillColor=none;align=center;verticalAlign=middle;whiteSpace=wrap;rounded=0;" vertex="1" parent="1">
          <mxGeometry x="-130" y="477.5" width="120" height="45" as="geometry" />
        </mxCell>
        <mxCell id="x0BQICnStO803g0cChY8-23" value="process interrupt" style="rounded=0;whiteSpace=wrap;html=1;" vertex="1" parent="1">
          <mxGeometry x="-162.5" y="645" width="120" height="35" as="geometry" />
        </mxCell>
        <mxCell id="x0BQICnStO803g0cChY8-24" value="" style="endArrow=classic;html=1;rounded=0;exitX=0;exitY=0.5;exitDx=0;exitDy=0;entryX=0.5;entryY=0;entryDx=0;entryDy=0;" edge="1" parent="1" source="UIp_oxGLhuecJ5jzLFc2-5" target="x0BQICnStO803g0cChY8-23">
          <mxGeometry width="50" height="50" relative="1" as="geometry">
            <mxPoint x="30" y="630" as="sourcePoint" />
            <mxPoint x="80" y="580" as="targetPoint" />
            <Array as="points">
              <mxPoint x="-103" y="600" />
            </Array>
          </mxGeometry>
        </mxCell>
        <mxCell id="x0BQICnStO803g0cChY8-25" value="IP is out of program&#39;s range" style="rhombus;whiteSpace=wrap;html=1;" vertex="1" parent="1">
          <mxGeometry x="-56.25" y="760" width="112.5" height="100" as="geometry" />
        </mxCell>
        <mxCell id="x0BQICnStO803g0cChY8-27" value="" style="endArrow=classic;html=1;rounded=0;exitX=0.5;exitY=1;exitDx=0;exitDy=0;entryX=0.5;entryY=0;entryDx=0;entryDy=0;" edge="1" parent="1" source="x0BQICnStO803g0cChY8-25" target="UIp_oxGLhuecJ5jzLFc2-49">
          <mxGeometry width="50" height="50" relative="1" as="geometry">
            <mxPoint x="30" y="820" as="sourcePoint" />
            <mxPoint x="80" y="770" as="targetPoint" />
          </mxGeometry>
        </mxCell>
        <mxCell id="x0BQICnStO803g0cChY8-28" value="" style="endArrow=classic;html=1;rounded=0;entryX=0.5;entryY=0;entryDx=0;entryDy=0;" edge="1" parent="1" source="x0BQICnStO803g0cChY8-30" target="x0BQICnStO803g0cChY8-25">
          <mxGeometry width="50" height="50" relative="1" as="geometry">
            <mxPoint y="720" as="sourcePoint" />
            <mxPoint y="700" as="targetPoint" />
          </mxGeometry>
        </mxCell>
        <mxCell id="x0BQICnStO803g0cChY8-31" value="" style="endArrow=classic;html=1;rounded=0;exitX=0.5;exitY=1;exitDx=0;exitDy=0;" edge="1" parent="1" source="UIp_oxGLhuecJ5jzLFc2-5" target="x0BQICnStO803g0cChY8-30">
          <mxGeometry width="50" height="50" relative="1" as="geometry">
            <mxPoint y="640" as="sourcePoint" />
            <mxPoint y="700" as="targetPoint" />
          </mxGeometry>
        </mxCell>
        <mxCell id="x0BQICnStO803g0cChY8-32" value="" style="endArrow=classic;html=1;rounded=0;entryDx=0;entryDy=0;" edge="1" parent="1" target="x0BQICnStO803g0cChY8-30">
          <mxGeometry width="50" height="50" relative="1" as="geometry">
            <mxPoint y="720" as="sourcePoint" />
            <mxPoint y="760" as="targetPoint" />
          </mxGeometry>
        </mxCell>
        <mxCell id="x0BQICnStO803g0cChY8-30" value="" style="shape=waypoint;sketch=0;fillStyle=solid;size=6;pointerEvents=1;points=[];fillColor=none;resizable=0;rotatable=0;perimeter=centerPerimeter;snapToPoint=1;" vertex="1" parent="1">
          <mxGeometry x="-10" y="710" width="20" height="20" as="geometry" />
        </mxCell>
        <mxCell id="x0BQICnStO803g0cChY8-33" value="" style="endArrow=classic;html=1;rounded=0;exitX=0.5;exitY=1;exitDx=0;exitDy=0;entryX=0.429;entryY=0.734;entryDx=0;entryDy=0;entryPerimeter=0;" edge="1" parent="1" source="x0BQICnStO803g0cChY8-23" target="x0BQICnStO803g0cChY8-30">
          <mxGeometry width="50" height="50" relative="1" as="geometry">
            <mxPoint x="200" y="740" as="sourcePoint" />
            <mxPoint x="250" y="690" as="targetPoint" />
            <Array as="points">
              <mxPoint x="-103" y="720" />
            </Array>
          </mxGeometry>
        </mxCell>
      </root>
    </mxGraphModel>
  </diagram>
</mxfile>
